# xmcd CD database file
#
# Track frame offsets:
#	150
#	29840
#	60191
#	80535
#	85638
#	114000
#	130703
#	148073
#	170271
#	196829
#	222435
#
# Disc length: 3095 seconds
#
# Revision: 0
# Processed by: cddbd v1.5.2PL0 Copyright (c) Steve Scherf et al.
# Submitted via: CDex 1.51
#
DISCID=8b0c150b
DTITLE=Bebo Ferra - Javier Girotto - Kaleidoscopic Arabesque
DYEAR=2010
DGENRE=Jazz
TTITLE0=Kaleidoscopic Arabesque
TTITLE1=Il Volo Della Libellula
TTITLE2=Sprigos de Luna
TTITLE3=Sipario
TTITLE4=Rio Andaluso
TTITLE5=Impro #1
TTITLE6=Paoletta
TTITLE7=El Diablo
TTITLE8=Melodehia
TTITLE9=Impro #2
TTITLE10=Astratto
EXTD=YEAR: 2010
EXTT0=
EXTT1=
EXTT2=
EXTT3=
EXTT4=
EXTT5=
EXTT6=
EXTT7=
EXTT8=
EXTT9=
EXTT10=
PLAYORDER=
